<?xml version="1.0" encoding="UTF-8" standalone="no"?>
<!DOCTYPE svg PUBLIC "-//W3C//DTD SVG 1.1//EN" "http://www.w3.org/Graphics/SVG/1.1/DTD/svg11.dtd">
<svg width="100%" height="100%" viewBox="0 0 379 116" version="1.1" xmlns="http://www.w3.org/2000/svg" xmlns:xlink="http://www.w3.org/1999/xlink" xml:space="preserve" xmlns:serif="http://www.serif.com/" style="fill-rule:evenodd;clip-rule:evenodd;stroke-linejoin:round;stroke-miterlimit:2;">
    <g transform="matrix(0.565336,-0.574019,0.636945,0.62731,-94.7178,6.14733)">
        <rect x="49.259" y="154.759" width="36.15" height="32.554" style="fill:rgb(234,88,12);"/>
    </g>
    <g transform="matrix(0.565336,-0.574019,0.636945,0.62731,-95.3554,-39.7035)">
        <rect x="49.259" y="154.759" width="36.15" height="32.554" style="fill:rgb(234,88,12);"/>
    </g>
    <g transform="matrix(0.565336,-0.574019,0.636945,0.62731,-118.433,-16.4472)">
        <rect x="49.259" y="154.759" width="36.15" height="32.554" style="fill:rgb(234,88,12);"/>
    </g>
    <g transform="matrix(0.893989,0,0,0.893989,-219.706,-71.568)">
        <text x="330.018px" y="120.445px" style="font-family:'ArialMT', 'Arial', sans-serif;font-size:29.829px;fill:white;">ontabilidad</text>
    </g>
    <g transform="matrix(0.893989,0,0,0.893989,-233.936,-41.3232)">
        <text x="330.018px" y="120.445px" style="font-family:'ArialMT', 'Arial', sans-serif;font-size:40px;fill:white;">San V<tspan x="438.26px 447.147px " y="120.445px 120.445px ">ic</tspan>ente</text>
    </g>
    <g transform="matrix(0.893989,0,0,0.893989,-90.3002,30.6488)">
        <text x="122.571px" y="34.22px" style="font-family:'Arial-BoldMT', 'Arial', sans-serif;font-weight:700;font-size:25px;fill:rgb(23,37,84);">%</text>
    </g>
    <g transform="matrix(1.1061,0,0,1.14016,-94.7504,-127.305)">
        <rect x="133.793" y="170.556" width="4.167" height="27.424" style="fill:rgb(23,37,84);"/>
    </g>
    <g transform="matrix(1.1061,0,0,1.14016,-101.409,-121.834)">
        <rect x="133.793" y="170.556" width="4.167" height="27.424" style="fill:rgb(23,37,84);"/>
    </g>
    <g transform="matrix(1.1061,0,0,1.14016,-108.011,-116.565)">
        <rect x="133.793" y="170.556" width="4.167" height="27.424" style="fill:rgb(23,37,84);"/>
    </g>
    <g transform="matrix(1,0,0,1,41.3176,38.4776)">
        <text x="0px" y="0px" style="font-family:'ArialMT', 'Arial', sans-serif;font-size:26.667px;fill:rgb(23,37,84);">C</text>
    </g>
</svg>
