<?xml version="1.0" encoding="UTF-8" standalone="no"?>
<!DOCTYPE svg PUBLIC "-//W3C//DTD SVG 1.1//EN" "http://www.w3.org/Graphics/SVG/1.1/DTD/svg11.dtd">
<svg width="100%" height="100%" viewBox="0 0 200 60" version="1.1" xmlns="http://www.w3.org/2000/svg" xmlns:xlink="http://www.w3.org/1999/xlink" xml:space="preserve" xmlns:serif="http://www.serif.com/" style="fill-rule:evenodd;clip-rule:evenodd;stroke-linejoin:round;stroke-miterlimit:2;">
    <g transform="matrix(1.79813,0,0,2.11717,-82.2372,-1.24272)">
        <text x="51.883px" y="26.151px" style="font-family:'MuktaMahee-Regular', 'Mukta Mahee', sans-serif;font-size:33.58px;">S</text>
    </g>
    <g transform="matrix(0.95562,0,0,1.12517,-3.67389,23.4702)">
        <text x="51.883px" y="26.151px" style="font-family:'MuktaMahee-Regular', 'Mukta Mahee', sans-serif;font-size:33.58px;">an</text>
        <text x="93.958px" y="26.151px" style="font-family:'MuktaMahee-Regular', 'Mukta Mahee', sans-serif;font-size:33.58px;">Vic<tspan x="135.463px 152.387px 170.151px " y="26.151px 26.151px 26.151px ">ent</tspan>e</text>
    </g>
    <g transform="matrix(0.651883,0,0,0.767544,18.5663,2.96422)">
        <text x="51.883px" y="26.151px" style="font-family:'MuktaMahee-Regular', 'Mukta Mahee', sans-serif;font-size:33.58px;">Con<tspan x="106.484px " y="26.151px ">t</tspan>abilidad</text>
    </g>
    <g transform="matrix(1.04853,0,0,1.846,-25.1028,-20.3191)">
        <rect x="30.909" y="13.895" width="2.564" height="29.07"/>
    </g>
    <g transform="matrix(0.832539,0,0,1.71432,-24.0073,-23.2003)">
        <rect x="30.909" y="13.895" width="2.564" height="29.07"/>
    </g>
    <g transform="matrix(0.76887,0,0,1.00137,25.5928,-12.3445)">
        <rect x="30.909" y="13.895" width="2.564" height="29.07"/>
    </g>
    <g transform="matrix(0.95489,0,0,1.79409,13.4361,-19.4202)">
        <rect x="30.909" y="13.895" width="2.564" height="29.07"/>
    </g>
    <g transform="matrix(-0.00106446,0.715931,-7.0194,-0.00972769,293.936,35.4556)">
        <rect x="30.909" y="13.895" width="2.564" height="29.07"/>
    </g>
    <g transform="matrix(-0.0113895,0.965996,-1.30405,-0.0152436,63.7114,-24.2562)">
        <rect x="30.909" y="13.895" width="2.564" height="29.07"/>
    </g>
    <g transform="matrix(-0.0107847,0.914697,-1.69112,-0.0197682,75.1695,-26.7612)">
        <rect x="30.909" y="13.895" width="2.564" height="29.07"/>
    </g>
    <g transform="matrix(0.961718,0,0,0.951379,-23.1973,12.5162)">
        <rect x="25.97" y="37.52" width="17" height="2.686"/>
    </g>
    <g transform="matrix(0.743263,0,0,0.739778,3.81767,12.5426)">
        <rect x="4.534" y="43.597" width="10.715" height="11.454" style="fill:white;"/>
    </g>
</svg>
